# xmcd
#
# Track frame offsets:
# 150
# 17932
# 36112
# 53697
# 73577
# 92962
# 109052
# 124105
# 142570
# 158780
# 173202
# 189112
# 205402
# 220252
# 240732
# 265042
# 283772
# 303960
# 321467
# 339425
#
# Disc length: 4739 seconds
#
#
# Revision: 4
# Processed by: cddbd v1.5.2PL0 Copyright (c) Steve Scherf et al.
# Submitted via: FreeRIP 2.96 
#
DISCID=1f128114
DTITLE=Various Artist - Woman
DYEAR=2000
DGENRE=blues
TTITLE0=Shania Twain - That don't impress me much
TTITLE1=Texas - Summer Son
TTITLE2=Vonda Shepard - Searching my soul
TTITLE3=Jennifer Lopez - If you had my love
TTITLE4=The Corrs - What can i do
TTITLE5=Mariah Carey - Without you
TTITLE6=Jennifer Paige - Crush
TTITLE7=Gloria Stefan - Don't wanna lose you
TTITLE8=Tamara - Si nos dejan
TTITLE9=La oreja de Van Gogh - Cuéntame al oido
TTITLE10=Britney Spears - ...Baby one more time
TTITLE11=Jessica - How will i know
TTITLE12=Sixpence none the richer - Kiss me
TTITLE13=The Cranberries - Dreams
TTITLE14=Sheryl Crow - If it makes you happy
TTITLE15=Gabrielle - Sunshine
TTITLE16=Celine Dion - Where does my heart beat now
TTITLE17=Des'ree - Feel so high
TTITLE18=Lauryn Hill - Do wop (that thing)
TTITLE19=Janet Jackson - Runaway
EXTD=
EXTT0=
EXTT1=
EXTT2=
EXTT3=
EXTT4=
EXTT5=
EXTT6=
EXTT7=
EXTT8=
EXTT9=
EXTT10=
EXTT11=
EXTT12=
EXTT13=
EXTT14=
EXTT15=
EXTT16=
EXTT17=
EXTT18=
EXTT19=
PLAYORDER=
